<?xml version="1.0" standalone="no"?><!DOCTYPE svg PUBLIC "-//W3C//DTD SVG 1.1//EN" "http://www.w3.org/Graphics/SVG/1.1/DTD/svg11.dtd"><svg t="1628686369587" class="icon" viewBox="0 0 1024 1024" version="1.1" xmlns="http://www.w3.org/2000/svg" p-id="3240" xmlns:xlink="http://www.w3.org/1999/xlink" width="48" height="48"><defs><style type="text/css"></style></defs><path d="M759.3984 276.6848a25.6 25.6 0 0 1 0 36.181333L560.298667 512l199.099733 199.168a25.6 25.6 0 0 1 0 36.181333l-12.0832 12.0832a25.6 25.6 0 0 1-36.181333 0L512 560.264533l-199.168 199.133867a25.6 25.6 0 0 1-36.181333 0l-12.0832-12.0832a25.6 25.6 0 0 1 0-36.181333l199.133866-199.168-199.133866-199.099734a25.6 25.6 0 0 1 0-36.181333l12.0832-12.0832a25.6 25.6 0 0 1 36.181333 0l199.168 199.099733 199.099733-199.099733a25.6 25.6 0 0 1 36.181334 0l12.0832 12.0832z" p-id="3241" fill="#dddddd"></path></svg>