<?xml version="1.0" standalone="no"?><!DOCTYPE svg PUBLIC "-//W3C//DTD SVG 1.1//EN" "http://www.w3.org/Graphics/SVG/1.1/DTD/svg11.dtd"><svg t="1629114240082" class="icon" viewBox="0 0 1024 1024" version="1.1" xmlns="http://www.w3.org/2000/svg" p-id="2775" xmlns:xlink="http://www.w3.org/1999/xlink" width="40" height="40"><defs><style type="text/css"></style></defs><path d="M658.147768 466.66107c14.540701-15.359896 26.050383-32.767777 34.529045-52.141726 8.519622-19.373948 12.738473-39.976688 12.738473-61.808219 0-36.372233-9.093058-69.877285-27.279174-100.597076a205.699721 205.699721 0 0 0-73.317902-73.317902 193.903321 193.903321 0 0 0-100.597075-27.279174c-36.372233 0-69.877285 9.093058-100.597076 27.279174a205.699721 205.699721 0 0 0-73.317902 73.317902 193.903321 193.903321 0 0 0-27.279174 100.597076h99.368284c0-27.443013 10.117051-51.322531 30.310194-71.515674 20.193143-20.193143 44.031701-30.310194 71.515674-30.310194 27.443013 0 51.322531 10.117051 71.515673 30.310194 20.193143 20.193143 30.310194 43.622103 30.310194 70.286882 0 26.705738-10.117051 50.912934-30.310194 72.744465l-61.849179 63.037012a221.633053 221.633053 0 0 0-42.393312 65.453635 183.86819 183.86819 0 0 0-16.957325 76.348921v26.623819h99.368285c0-34.692884 5.652442-63.405649 16.998284-86.015416 7.249871-14.540701 21.380975-33.136415 42.393312-55.746181l44.850895-47.267518z m-104.242491 390.264226v-99.368284h-99.368285v99.368284h99.368285zM504.221135 0.006963c92.118414 0 177.355594 23.019363 255.7525 69.09905a477.87707 477.87707 0 0 1 179.40358 179.40358c46.038727 78.355947 69.05809 163.593128 69.058091 255.711541s-23.019363 177.355594-69.09905 255.752501a477.87707 477.87707 0 0 1-179.40358 179.40358c-78.355947 46.038727-163.593128 69.05809-255.711541 69.058091s-177.355594-23.019363-255.752501-69.09905a486.929169 486.929169 0 0 1-179.40358-180.591412A493.687523 493.687523 0 0 1 0.006963 504.221134c0-91.340179 23.019363-176.126802 69.09905-254.523709a496.227026 496.227026 0 0 1 180.591412-180.632371A493.687523 493.687523 0 0 1 504.221135 0.006963z" p-id="2776" fill="#dddddd"></path></svg>