<?xml version="1.0" standalone="no"?><!DOCTYPE svg PUBLIC "-//W3C//DTD SVG 1.1//EN" "http://www.w3.org/Graphics/SVG/1.1/DTD/svg11.dtd"><svg t="1628844633978" class="icon" viewBox="0 0 1024 1024" version="1.1" xmlns="http://www.w3.org/2000/svg" p-id="2058" width="40" height="40" xmlns:xlink="http://www.w3.org/1999/xlink"><defs><style type="text/css"></style></defs><path d="M917.914 512c0-57.651 36.198-106.496 86.886-125.952a505.395 505.395 0 0 0-55.194-133.427A134.758 134.758 0 0 1 771.482 74.445 507.648 507.648 0 0 0 637.952 19.2 135.168 135.168 0 0 1 512 106.086 134.963 134.963 0 0 1 386.048 19.2a505.395 505.395 0 0 0-133.427 55.245 134.912 134.912 0 0 1-27.648 150.477A135.168 135.168 0 0 1 74.547 252.62 502.016 502.016 0 0 0 19.2 386.048 135.168 135.168 0 0 1 106.086 512c0 57.651-36.198 106.496-86.886 125.952a505.395 505.395 0 0 0 55.245 133.427 134.758 134.758 0 0 1 178.073 178.176c41.268 24.423 86.016 43.162 133.53 55.245A135.168 135.168 0 0 1 512 917.914c57.651 0 106.496 36.198 125.952 86.886a505.395 505.395 0 0 0 133.427-55.194 134.912 134.912 0 0 1 27.648-150.528 135.168 135.168 0 0 1 150.426-27.699 502.016 502.016 0 0 0 55.347-133.427A134.963 134.963 0 0 1 917.914 512zM512 647.322a135.322 135.322 0 1 1 0.102-270.695A135.322 135.322 0 0 1 512 647.322z" fill="#dddddd" p-id="2059"></path></svg>