<?xml version="1.0" standalone="no"?><!DOCTYPE svg PUBLIC "-//W3C//DTD SVG 1.1//EN" "http://www.w3.org/Graphics/SVG/1.1/DTD/svg11.dtd"><svg t="1629357630311" class="icon" viewBox="0 0 1024 1024" version="1.1" xmlns="http://www.w3.org/2000/svg" p-id="2764" xmlns:xlink="http://www.w3.org/1999/xlink" width="40" height="40"><defs><style type="text/css"></style></defs><path d="M512 0c281.6 0 512 230.4 512 512s-230.4 512-512 512-512-230.4-512-512 230.4-512 512-512z m0 518.4c89.6 0 160-70.4 160-147.2S595.2 217.6 512 217.6 352 288 352 371.2 422.4 518.4 512 518.4z m268.8 147.2c-12.8-25.6-38.4-51.2-64-70.4-25.6-19.2-57.6-38.4-96-51.2-32-6.4-70.4-12.8-108.8-12.8-38.4 0-76.8 6.4-115.2 19.2-32 6.4-64 25.6-89.6 44.8-32 19.2-51.2 44.8-64 70.4-12.8 25.6-25.6 57.6-25.6 83.2v25.6c0 12.8 19.2 25.6 38.4 25.6h505.6c19.2 0 38.4-12.8 38.4-25.6v-25.6c0-32-6.4-57.6-19.2-83.2z" p-id="2765" fill="#dddddd"></path></svg>